<mxfile host="app.diagrams.net" modified="2020-10-22T08:13:07.047Z" agent="5.0 (Windows NT 10.0; Win64; x64) AppleWebKit/537.36 (KHTML, like Gecko) Chrome/86.0.4240.111 Safari/537.36" etag="mRvHx2-5fU5EI5Pvp3Kz" version="13.8.1" type="github">
  <diagram id="qkJvUZKhj3WJSZxvJOA4" name="Page-1">
    <mxGraphModel dx="1299" dy="705" grid="1" gridSize="10" guides="1" tooltips="1" connect="1" arrows="1" fold="1" page="1" pageScale="1" pageWidth="1169" pageHeight="1654" math="0" shadow="0">
      <root>
        <mxCell id="0" />
        <mxCell id="1" parent="0" />
        <mxCell id="4GxDgDzeVbelJv5N4U9X-1" value="" style="fontColor=#0066CC;verticalAlign=top;verticalLabelPosition=bottom;labelPosition=center;align=center;html=1;outlineConnect=0;fillColor=#CCCCCC;strokeColor=#6881B3;gradientColor=none;gradientDirection=north;strokeWidth=2;shape=mxgraph.networks.server;" vertex="1" parent="1">
          <mxGeometry x="50" y="480" width="90" height="100" as="geometry" />
        </mxCell>
        <mxCell id="4GxDgDzeVbelJv5N4U9X-2" value="" style="fontColor=#0066CC;verticalAlign=top;verticalLabelPosition=bottom;labelPosition=center;align=center;html=1;outlineConnect=0;fillColor=#CCCCCC;strokeColor=#6881B3;gradientColor=none;gradientDirection=north;strokeWidth=2;shape=mxgraph.networks.firewall;" vertex="1" parent="1">
          <mxGeometry x="314" y="350" width="100" height="100" as="geometry" />
        </mxCell>
        <mxCell id="4GxDgDzeVbelJv5N4U9X-3" value="" style="endArrow=none;html=1;" edge="1" parent="1">
          <mxGeometry width="50" height="50" relative="1" as="geometry">
            <mxPoint x="90" y="400" as="sourcePoint" />
            <mxPoint x="314" y="399.5" as="targetPoint" />
          </mxGeometry>
        </mxCell>
        <mxCell id="4GxDgDzeVbelJv5N4U9X-4" value="" style="endArrow=none;html=1;" edge="1" parent="1">
          <mxGeometry width="50" height="50" relative="1" as="geometry">
            <mxPoint x="414" y="399.5" as="sourcePoint" />
            <mxPoint x="540" y="400" as="targetPoint" />
          </mxGeometry>
        </mxCell>
        <mxCell id="4GxDgDzeVbelJv5N4U9X-5" value="" style="endArrow=none;html=1;" edge="1" parent="1">
          <mxGeometry width="50" height="50" relative="1" as="geometry">
            <mxPoint x="540" y="490" as="sourcePoint" />
            <mxPoint x="540" y="400" as="targetPoint" />
          </mxGeometry>
        </mxCell>
        <mxCell id="4GxDgDzeVbelJv5N4U9X-6" value="" style="fontColor=#0066CC;verticalAlign=top;verticalLabelPosition=bottom;labelPosition=center;align=center;html=1;outlineConnect=0;fillColor=#CCCCCC;strokeColor=#6881B3;gradientColor=none;gradientDirection=north;strokeWidth=2;shape=mxgraph.networks.laptop;" vertex="1" parent="1">
          <mxGeometry x="490" y="490" width="100" height="55" as="geometry" />
        </mxCell>
        <mxCell id="4GxDgDzeVbelJv5N4U9X-8" value="" style="endArrow=none;dashed=1;html=1;" edge="1" parent="1" target="4GxDgDzeVbelJv5N4U9X-9">
          <mxGeometry width="50" height="50" relative="1" as="geometry">
            <mxPoint x="389" y="350" as="sourcePoint" />
            <mxPoint x="510" y="220" as="targetPoint" />
          </mxGeometry>
        </mxCell>
        <mxCell id="4GxDgDzeVbelJv5N4U9X-9" value="" style="html=1;outlineConnect=0;fillColor=#CCCCCC;strokeColor=#6881B3;gradientColor=none;gradientDirection=north;strokeWidth=2;shape=mxgraph.networks.cloud;fontColor=#ffffff;" vertex="1" parent="1">
          <mxGeometry x="520" y="100" width="90" height="50" as="geometry" />
        </mxCell>
        <mxCell id="4GxDgDzeVbelJv5N4U9X-10" value="" style="fontColor=#0066CC;verticalAlign=top;verticalLabelPosition=bottom;labelPosition=center;align=center;html=1;outlineConnect=0;fillColor=#CCCCCC;strokeColor=#6881B3;gradientColor=none;gradientDirection=north;strokeWidth=2;shape=mxgraph.networks.firewall;" vertex="1" parent="1">
          <mxGeometry x="640" y="300" width="100" height="100" as="geometry" />
        </mxCell>
        <mxCell id="4GxDgDzeVbelJv5N4U9X-11" value="" style="endArrow=none;dashed=1;html=1;dashPattern=1 3;strokeWidth=2;" edge="1" parent="1" target="4GxDgDzeVbelJv5N4U9X-9">
          <mxGeometry width="50" height="50" relative="1" as="geometry">
            <mxPoint x="660" y="300" as="sourcePoint" />
            <mxPoint x="600" y="250" as="targetPoint" />
          </mxGeometry>
        </mxCell>
        <mxCell id="4GxDgDzeVbelJv5N4U9X-12" value="" style="endArrow=none;html=1;" edge="1" parent="1">
          <mxGeometry width="50" height="50" relative="1" as="geometry">
            <mxPoint x="350" y="130" as="sourcePoint" />
            <mxPoint x="520" y="130" as="targetPoint" />
          </mxGeometry>
        </mxCell>
        <mxCell id="4GxDgDzeVbelJv5N4U9X-13" value="" style="endArrow=none;html=1;" edge="1" parent="1">
          <mxGeometry width="50" height="50" relative="1" as="geometry">
            <mxPoint x="350" y="350" as="sourcePoint" />
            <mxPoint x="350" y="130" as="targetPoint" />
          </mxGeometry>
        </mxCell>
        <mxCell id="4GxDgDzeVbelJv5N4U9X-14" value="" style="endArrow=none;html=1;" edge="1" parent="1">
          <mxGeometry width="50" height="50" relative="1" as="geometry">
            <mxPoint x="710" y="300" as="sourcePoint" />
            <mxPoint x="710" y="140" as="targetPoint" />
          </mxGeometry>
        </mxCell>
        <mxCell id="4GxDgDzeVbelJv5N4U9X-15" value="" style="endArrow=none;html=1;" edge="1" parent="1">
          <mxGeometry width="50" height="50" relative="1" as="geometry">
            <mxPoint x="610" y="140" as="sourcePoint" />
            <mxPoint x="710" y="140" as="targetPoint" />
          </mxGeometry>
        </mxCell>
        <mxCell id="4GxDgDzeVbelJv5N4U9X-16" value="" style="fontColor=#0066CC;verticalAlign=top;verticalLabelPosition=bottom;labelPosition=center;align=center;html=1;outlineConnect=0;fillColor=#CCCCCC;strokeColor=#6881B3;gradientColor=none;gradientDirection=north;strokeWidth=2;shape=mxgraph.networks.virtual_server;" vertex="1" parent="1">
          <mxGeometry x="180" y="1040" width="110" height="120" as="geometry" />
        </mxCell>
        <mxCell id="4GxDgDzeVbelJv5N4U9X-17" value="" style="fontColor=#0066CC;verticalAlign=top;verticalLabelPosition=bottom;labelPosition=center;align=center;html=1;outlineConnect=0;fillColor=#CCCCCC;strokeColor=#6881B3;gradientColor=none;gradientDirection=north;strokeWidth=2;shape=mxgraph.networks.virtual_server;" vertex="1" parent="1">
          <mxGeometry x="760" y="1040" width="110" height="120" as="geometry" />
        </mxCell>
        <mxCell id="4GxDgDzeVbelJv5N4U9X-18" value="" style="fontColor=#0066CC;verticalAlign=top;verticalLabelPosition=bottom;labelPosition=center;align=center;html=1;outlineConnect=0;fillColor=#CCCCCC;strokeColor=#6881B3;gradientColor=none;gradientDirection=north;strokeWidth=2;shape=mxgraph.networks.virtual_server;" vertex="1" parent="1">
          <mxGeometry x="610" y="1040" width="110" height="120" as="geometry" />
        </mxCell>
        <mxCell id="4GxDgDzeVbelJv5N4U9X-20" value="" style="fontColor=#0066CC;verticalAlign=top;verticalLabelPosition=bottom;labelPosition=center;align=center;html=1;outlineConnect=0;fillColor=#CCCCCC;strokeColor=#6881B3;gradientColor=none;gradientDirection=north;strokeWidth=2;shape=mxgraph.networks.laptop;" vertex="1" parent="1">
          <mxGeometry x="45" y="1000" width="100" height="55" as="geometry" />
        </mxCell>
        <mxCell id="4GxDgDzeVbelJv5N4U9X-21" value="" style="fontColor=#0066CC;verticalAlign=top;verticalLabelPosition=bottom;labelPosition=center;align=center;html=1;outlineConnect=0;fillColor=#CCCCCC;strokeColor=#6881B3;gradientColor=none;gradientDirection=north;strokeWidth=2;shape=mxgraph.networks.virtual_server;" vertex="1" parent="1">
          <mxGeometry x="450" y="1040" width="110" height="120" as="geometry" />
        </mxCell>
        <mxCell id="4GxDgDzeVbelJv5N4U9X-22" value="" style="fontColor=#0066CC;verticalAlign=top;verticalLabelPosition=bottom;labelPosition=center;align=center;html=1;outlineConnect=0;fillColor=#CCCCCC;strokeColor=#6881B3;gradientColor=none;gradientDirection=north;strokeWidth=2;shape=mxgraph.networks.virtual_server;" vertex="1" parent="1">
          <mxGeometry x="314" y="1040" width="110" height="120" as="geometry" />
        </mxCell>
        <mxCell id="4GxDgDzeVbelJv5N4U9X-23" value="" style="endArrow=none;html=1;" edge="1" parent="1">
          <mxGeometry width="50" height="50" relative="1" as="geometry">
            <mxPoint x="810" y="1040" as="sourcePoint" />
            <mxPoint x="810" y="870" as="targetPoint" />
          </mxGeometry>
        </mxCell>
        <mxCell id="4GxDgDzeVbelJv5N4U9X-24" value="" style="endArrow=none;html=1;exitX=0.36;exitY=0;exitDx=0;exitDy=0;exitPerimeter=0;" edge="1" parent="1" source="4GxDgDzeVbelJv5N4U9X-20">
          <mxGeometry width="50" height="50" relative="1" as="geometry">
            <mxPoint x="80" y="990" as="sourcePoint" />
            <mxPoint x="81" y="760" as="targetPoint" />
          </mxGeometry>
        </mxCell>
        <mxCell id="4GxDgDzeVbelJv5N4U9X-25" value="" style="endArrow=none;html=1;exitX=0.3;exitY=0;exitDx=0;exitDy=0;exitPerimeter=0;" edge="1" parent="1" source="4GxDgDzeVbelJv5N4U9X-39">
          <mxGeometry width="50" height="50" relative="1" as="geometry">
            <mxPoint x="360" y="1110" as="sourcePoint" />
            <mxPoint x="360" y="450" as="targetPoint" />
          </mxGeometry>
        </mxCell>
        <mxCell id="4GxDgDzeVbelJv5N4U9X-32" value="" style="fontColor=#0066CC;verticalAlign=top;verticalLabelPosition=bottom;labelPosition=center;align=center;html=1;outlineConnect=0;fillColor=#CCCCCC;strokeColor=#6881B3;gradientColor=none;gradientDirection=north;strokeWidth=2;shape=mxgraph.networks.router;" vertex="1" parent="1">
          <mxGeometry x="680" y="510" width="100" height="30" as="geometry" />
        </mxCell>
        <mxCell id="4GxDgDzeVbelJv5N4U9X-33" value="" style="fontColor=#0066CC;verticalAlign=top;verticalLabelPosition=bottom;labelPosition=center;align=center;html=1;outlineConnect=0;fillColor=#CCCCCC;strokeColor=#6881B3;gradientColor=none;gradientDirection=north;strokeWidth=2;shape=mxgraph.networks.virtual_server;" vertex="1" parent="1">
          <mxGeometry x="960" y="630" width="110" height="120" as="geometry" />
        </mxCell>
        <mxCell id="4GxDgDzeVbelJv5N4U9X-34" value="" style="fontColor=#0066CC;verticalAlign=top;verticalLabelPosition=bottom;labelPosition=center;align=center;html=1;outlineConnect=0;fillColor=#CCCCCC;strokeColor=#6881B3;gradientColor=none;gradientDirection=north;strokeWidth=2;shape=mxgraph.networks.virtual_server;" vertex="1" parent="1">
          <mxGeometry x="830" y="627.5" width="110" height="120" as="geometry" />
        </mxCell>
        <mxCell id="4GxDgDzeVbelJv5N4U9X-35" value="" style="fontColor=#0066CC;verticalAlign=top;verticalLabelPosition=bottom;labelPosition=center;align=center;html=1;outlineConnect=0;fillColor=#CCCCCC;strokeColor=#6881B3;gradientColor=none;gradientDirection=north;strokeWidth=2;shape=mxgraph.networks.laptop;" vertex="1" parent="1">
          <mxGeometry x="710" y="630" width="100" height="55" as="geometry" />
        </mxCell>
        <mxCell id="4GxDgDzeVbelJv5N4U9X-36" value="" style="endArrow=none;html=1;" edge="1" parent="1">
          <mxGeometry width="50" height="50" relative="1" as="geometry">
            <mxPoint x="780" y="510" as="sourcePoint" />
            <mxPoint x="1010" y="510.5" as="targetPoint" />
          </mxGeometry>
        </mxCell>
        <mxCell id="4GxDgDzeVbelJv5N4U9X-39" value="" style="fontColor=#0066CC;verticalAlign=top;verticalLabelPosition=bottom;labelPosition=center;align=center;html=1;outlineConnect=0;fillColor=#CCCCCC;strokeColor=#6881B3;gradientColor=none;gradientDirection=north;strokeWidth=2;shape=mxgraph.networks.router;" vertex="1" parent="1">
          <mxGeometry x="330" y="750" width="100" height="30" as="geometry" />
        </mxCell>
        <mxCell id="4GxDgDzeVbelJv5N4U9X-40" value="" style="endArrow=none;html=1;" edge="1" parent="1">
          <mxGeometry width="50" height="50" relative="1" as="geometry">
            <mxPoint x="80" y="760.5" as="sourcePoint" />
            <mxPoint x="330" y="760" as="targetPoint" />
          </mxGeometry>
        </mxCell>
        <mxCell id="4GxDgDzeVbelJv5N4U9X-41" value="" style="endArrow=none;html=1;" edge="1" parent="1">
          <mxGeometry width="50" height="50" relative="1" as="geometry">
            <mxPoint x="390" y="870" as="sourcePoint" />
            <mxPoint x="810" y="870" as="targetPoint" />
          </mxGeometry>
        </mxCell>
        <mxCell id="4GxDgDzeVbelJv5N4U9X-42" value="" style="endArrow=none;html=1;" edge="1" parent="1">
          <mxGeometry width="50" height="50" relative="1" as="geometry">
            <mxPoint x="390" y="870" as="sourcePoint" />
            <mxPoint x="390" y="780" as="targetPoint" />
          </mxGeometry>
        </mxCell>
        <mxCell id="4GxDgDzeVbelJv5N4U9X-43" value="" style="endArrow=none;html=1;" edge="1" parent="1">
          <mxGeometry width="50" height="50" relative="1" as="geometry">
            <mxPoint x="1010" y="630" as="sourcePoint" />
            <mxPoint x="1010" y="510" as="targetPoint" />
          </mxGeometry>
        </mxCell>
        <mxCell id="4GxDgDzeVbelJv5N4U9X-46" value="" style="endArrow=none;html=1;exitX=0.4;exitY=0;exitDx=0;exitDy=0;exitPerimeter=0;" edge="1" parent="1" source="4GxDgDzeVbelJv5N4U9X-32">
          <mxGeometry width="50" height="50" relative="1" as="geometry">
            <mxPoint x="720" y="500" as="sourcePoint" />
            <mxPoint x="720" y="400" as="targetPoint" />
          </mxGeometry>
        </mxCell>
        <mxCell id="4GxDgDzeVbelJv5N4U9X-47" value="" style="endArrow=none;html=1;exitX=0.4;exitY=0;exitDx=0;exitDy=0;exitPerimeter=0;" edge="1" parent="1">
          <mxGeometry width="50" height="50" relative="1" as="geometry">
            <mxPoint x="90" y="480" as="sourcePoint" />
            <mxPoint x="90" y="400" as="targetPoint" />
          </mxGeometry>
        </mxCell>
      </root>
    </mxGraphModel>
  </diagram>
</mxfile>
